TITLE ""
FILE "Disc2Track38.mp3" MP3
  TRACK 01 AUDIO
    TITLE "Disc2Track38_01"
    INDEX 01 00:00:00
  TRACK 02 AUDIO
    TITLE "Disc2Track38_02"
    INDEX 01 00:01:14
  TRACK 03 AUDIO
    TITLE "Disc2Track38_03"
    INDEX 01 00:04:28
  TRACK 04 AUDIO
    TITLE "Disc2Track38_04"
    INDEX 01 00:05:53
  TRACK 05 AUDIO
    TITLE "Disc2Track38_05"
    INDEX 01 00:10:50
  TRACK 06 AUDIO
    TITLE "Disc2Track38_06"
    INDEX 01 00:11:02
  TRACK 07 AUDIO
    TITLE "Disc2Track38_07"
    INDEX 01 00:12:37
  TRACK 08 AUDIO
    TITLE "Disc2Track38_08"
    INDEX 01 00:13:50
  TRACK 09 AUDIO
    TITLE "Disc2Track38_09"
    INDEX 01 00:15:08
  TRACK 10 AUDIO
    TITLE "Disc2Track38_10"
    INDEX 01 00:16:66
  TRACK 11 AUDIO
    TITLE "Disc2Track38_11"
    INDEX 01 00:17:26
  TRACK 12 AUDIO
    TITLE "Disc2Track38_12"
    INDEX 01 00:18:63
  TRACK 13 AUDIO
    TITLE "Disc2Track38_13"
    INDEX 01 00:20:64
  TRACK 14 AUDIO
    TITLE "Disc2Track38_14"
    INDEX 01 00:22:26
  TRACK 15 AUDIO
    TITLE "Disc2Track38_15"
    INDEX 01 00:24:75
  TRACK 16 AUDIO
    TITLE "Disc2Track38_16"
    INDEX 01 00:25:32
  TRACK 17 AUDIO
    TITLE "Disc2Track38_17"
    INDEX 01 00:27:01
  TRACK 18 AUDIO
    TITLE "Disc2Track38_18"
    INDEX 01 00:28:61
  TRACK 19 AUDIO
    TITLE "Disc2Track38_19"
    INDEX 01 00:30:33
  TRACK 20 AUDIO
    TITLE "Disc2Track38_20"
    INDEX 01 00:30:70
  TRACK 21 AUDIO
    TITLE "Disc2Track38_21"
    INDEX 01 00:32:14
  TRACK 22 AUDIO
    TITLE "Disc2Track38_22"
    INDEX 01 00:35:36
  TRACK 23 AUDIO
    TITLE "Disc2Track38_23"
    INDEX 01 00:36:57
  TRACK 24 AUDIO
    TITLE "Disc2Track38_24"
    INDEX 01 00:40:74
  TRACK 25 AUDIO
    TITLE "Disc2Track38_25"
    INDEX 01 00:41:31
  TRACK 26 AUDIO
    TITLE "Disc2Track38_26"
    INDEX 01 00:42:54
  TRACK 27 AUDIO
    TITLE "Disc2Track38_27"
    INDEX 01 00:43:63
  TRACK 28 AUDIO
    TITLE "Disc2Track38_28"
    INDEX 01 00:45:13
  TRACK 29 AUDIO
    TITLE "Disc2Track38_29"
    INDEX 01 00:47:51
  TRACK 30 AUDIO
    TITLE "Disc2Track38_30"
    INDEX 01 00:48:09
  TRACK 31 AUDIO
    TITLE "Disc2Track38_31"
    INDEX 01 00:49:30
  TRACK 32 AUDIO
    TITLE "Disc2Track38_32"
    INDEX 01 00:52:25
  TRACK 33 AUDIO
    TITLE "Disc2Track38_33"
    INDEX 01 00:53:46
  TRACK 34 AUDIO
    TITLE "Disc2Track38_34"
    INDEX 01 00:56:68
  TRACK 35 AUDIO
    TITLE "Disc2Track38_35"
    INDEX 01 00:57:24
  TRACK 36 AUDIO
    TITLE "Disc2Track38_36"
    INDEX 01 00:58:53
  TRACK 37 AUDIO
    TITLE "Disc2Track38_37"
    INDEX 01 00:59:56
  TRACK 38 AUDIO
    TITLE "Disc2Track38_38"
    INDEX 01 01:01:10
  TRACK 39 AUDIO
    TITLE "Disc2Track38_39"
    INDEX 01 01:01:49
  TRACK 40 AUDIO
    TITLE "Disc2Track38_40"
    INDEX 01 01:03:03
  TRACK 41 AUDIO
    TITLE "Disc2Track38_41"
    INDEX 01 01:04:06
  TRACK 42 AUDIO
    TITLE "Disc2Track38_42"
    INDEX 01 01:05:35
  TRACK 43 AUDIO
    TITLE "Disc2Track38_43"
    INDEX 01 01:07:46
